<?xml version="1.0" encoding="UTF-8" standalone="no"?><!-- Generator: Gravit.io --><svg xmlns="http://www.w3.org/2000/svg" xmlns:xlink="http://www.w3.org/1999/xlink" style="isolation:isolate" viewBox="226.5 210.5 870 867" width="870pt" height="867pt"><defs><clipPath id="_clipPath_cxlTpPJv1LWKBHxypPY4ljZlmRRhAsj0"><rect x="226.5" y="210.5" width="870" height="867"/></clipPath></defs><g clip-path="url(#_clipPath_cxlTpPJv1LWKBHxypPY4ljZlmRRhAsj0)"><line x1="914" y1="900" x2="1012" y2="998" vector-effect="non-scaling-stroke" stroke-width="5" stroke="rgb(162,162,162)" stroke-linejoin="miter" stroke-linecap="square" stroke-miterlimit="3"/><mask id="_mask_QzYLe2uyrFFH2IkOYJEmIMvz3QxQCdEe"><circle vector-effect="non-scaling-stroke" cx="661.6194457331299" cy="648.9999999999998" r="334.7499999999999" fill="white" stroke="none"/></mask><circle vector-effect="non-scaling-stroke" cx="661.6194457331299" cy="648.9999999999998" r="334.7499999999999" fill="none"/><circle vector-effect="non-scaling-stroke" cx="661.6194457331299" cy="648.9999999999998" r="334.7499999999999" fill="none" mask="url(#_mask_QzYLe2uyrFFH2IkOYJEmIMvz3QxQCdEe)" stroke-width="80" stroke="rgb(162,162,162)" stroke-linejoin="miter" stroke-linecap="square" stroke-miterlimit="3"/><path d=" M 593.932 760.693 L 485 826.771 L 555.99 718.045 L 585.858 725.59" fill="rgb(162,162,162)" vector-effect="non-scaling-stroke" stroke-width="1" stroke="rgb(162,162,162)" stroke-linejoin="miter" stroke-linecap="square" stroke-miterlimit="3"/><g><path d=" M 1095 650 L 1095 650 L 738 724 L 661 650 L 1095 650 L 1095 650 L 1095 650 Z  M 661 1075 L 586 724 L 661 650 L 661 650 L 661 650 L 661 650 L 661 1075 L 661 1075 L 661 1075 L 661 1075 Z  M 586 577 L 233 650 L 661 650 L 661 650 L 586 577 L 586 577 Z  M 738 577 L 661 212 L 661 650 L 661 650 L 661 650 L 661 650 L 738 577 Z " fill-rule="evenodd" fill="rgb(162,162,162)" vector-effect="non-scaling-stroke" stroke-width="1" stroke="rgb(162,162,162)" stroke-linejoin="miter" stroke-linecap="square" stroke-miterlimit="3"/><path d=" M 228 651 L 228 651 L 585 725 L 662 651 L 228 651 L 228 651 L 228 651 Z  M 662 1076 L 737 725 L 662 651 L 662 651 L 662 651 L 662 651 L 662 1076 L 662 1076 L 662 1076 L 662 1076 Z  M 737 578 L 1090 651 L 662 651 L 662 651 L 737 578 L 737 578 Z  M 585 578 L 662 213 L 662 651 L 662 651 L 662 651 L 662 651 L 585 578 Z " fill-rule="evenodd" fill="rgb(255,255,255)" vector-effect="non-scaling-stroke" stroke-width="1" stroke="rgb(162,162,162)" stroke-linejoin="miter" stroke-linecap="square" stroke-miterlimit="3"/><line x1="662" y1="650" x2="738" y2="577" vector-effect="non-scaling-stroke" stroke-width="1" stroke="rgb(162,162,162)" stroke-linejoin="miter" stroke-linecap="square" stroke-miterlimit="3"/></g><path d=" M 555.99 585 L 485 471.973 L 593.932 542.646 L 585.858 578" fill="rgb(162,162,162)" vector-effect="non-scaling-stroke" stroke-width="1" stroke="rgb(162,162,162)" stroke-linejoin="miter" stroke-linecap="square" stroke-miterlimit="3"/><path d=" M 729.039 543 L 837 475 L 768 585 L 738 578" fill="rgb(162,162,162)" vector-effect="non-scaling-stroke" stroke-width="1" stroke="rgb(162,162,162)" stroke-linejoin="miter" stroke-linecap="square" stroke-miterlimit="3"/><path d=" M 768 718.045 L 838.616 826.771 L 729.039 757.101 L 738 722" fill="rgb(162,162,162)" vector-effect="non-scaling-stroke" stroke-width="1" stroke="rgb(162,162,162)" stroke-linejoin="miter" stroke-linecap="square" stroke-miterlimit="3"/><line x1="315" y1="301" x2="413" y2="399" vector-effect="non-scaling-stroke" stroke-width="5" stroke="rgb(162,162,162)" stroke-linejoin="miter" stroke-linecap="square" stroke-miterlimit="3"/><line x1="315" y1="998" x2="413" y2="900" vector-effect="non-scaling-stroke" stroke-width="5" stroke="rgb(162,162,162)" stroke-linejoin="miter" stroke-linecap="square" stroke-miterlimit="3"/><line x1="914" y1="399" x2="1012" y2="301" vector-effect="non-scaling-stroke" stroke-width="5" stroke="rgb(162,162,162)" stroke-linejoin="miter" stroke-linecap="square" stroke-miterlimit="3"/></g></svg>